<svg height="133" viewBox="0 0 545 133" width="545" xmlns="http://www.w3.org/2000/svg" xmlns:xlink="http://www.w3.org/1999/xlink"><linearGradient id="a" x1="50%" x2="50%" y1="89.88598%" y2="0%"><stop offset="0" stop-color="#fbfbfb"/><stop offset="1" stop-color="#d6d6d6"/></linearGradient><g fill="none" fill-rule="evenodd"><g fill="#000"><text font-family="GurmukhiMN, Gurmukhi MN" font-size="150"><tspan x="-1" y="130">W</tspan></text><text font-family="GurmukhiMN, Gurmukhi MN" font-size="150"><tspan x="182" y="130">SEUP</tspan></text><path d="m161 32.8260692c0 .0955395-.088827.1739308-.197085.1739308h-1.60583c-.108258 0-.197085-.0783913-.197085-.1739308v-3.6517301c0-.0959478.088827-.1743391.197085-.1743391h1.60583c.108258 0 .197085.0783913.197085.1743391zm0 6c0 .0955395-.088827.1739308-.197085.1739308h-1.60583c-.108258 0-.197085-.0783913-.197085-.1739308v-3.6517301c0-.0959478.088827-.1743391.197085-.1743391h1.60583c.108258 0 .197085.0783913.197085.1743391zm0 10.9995917c0 .0959478-.088827.1743391-.197085.1743391h-1.60583c-.108258 0-.197085-.0783913-.197085-.1743391v-3.6517301c0-.0959477.088827-.1739308.197085-.1739308h1.60583c.108258 0 .197085.0779831.197085.1739308zm0 6.0000178c0 .095938-.088827.1743213-.197085.1743213h-1.60583c-.108258 0-.197085-.0783833-.197085-.1743213v-3.6513574c0-.095938.088827-.1743213.197085-.1743213h1.60583c.108258 0 .197085.0783833.197085.1743213zm0 10.9999822c0 .0959478-.088827.1743391-.197085.1743391h-1.60583c-.108258 0-.197085-.0783913-.197085-.1743391v-3.6517301c0-.0955395.088827-.1739308.197085-.1739308h1.60583c.108258 0 .197085.0783913.197085.1739308zm0 7c0 .0959478-.088827.1743391-.197085.1743391h-1.60583c-.108258 0-.197085-.0783913-.197085-.1743391v-3.6517301c0-.0955395.088827-.1739308.197085-.1739308h1.60583c.108258 0 .197085.0783913.197085.1739308zm0 11.0004083c0 .0955395-.088827.1739308-.197085.1739308h-1.60583c-.108258 0-.197085-.0783913-.197085-.1739308v-3.6517301c0-.0959478.088827-.1743391.197085-.1743391h1.60583c.108258 0 .197085.0783913.197085.1743391zm0 6c0 .0955395-.088827.1739308-.197085.1739308h-1.60583c-.108258 0-.197085-.0783913-.197085-.1739308v-3.6517301c0-.0959478.088827-.1743391.197085-.1743391h1.60583c.108258 0 .197085.0783913.197085.1743391zm10.163331 5.4428997-.712688-16.8174529-2.733173-53.451516h-14.43494l-2.716775 53.1321505-1.565755 36.8678495h23z" transform="matrix(-1 0 0 1 321 0)"/><path d="m173.839014 116h-25.678028c-.088429 0-.160986-.070549-.160986-.156899v-1.68657c0-.085982.072557-.156531.160986-.156531h25.678028c.088429 0 .160986.070549.160986.156531v1.68657c0 .08635-.072557.156899-.160986.156899" stroke="#000" transform="matrix(-1 0 0 1 322 0)"/><path d="m173.839014 114h-25.678028c-.088429 0-.160986-.070549-.160986-.156531v-1.68657c0-.08635.072557-.156899.160986-.156899h25.678028c.088429 0 .160986.070549.160986.156899v1.68657c0 .085982-.072557.156531-.160986.156531" stroke="#000" transform="matrix(-1 0 0 1 322 0)"/><path d="m172.105036 116h-23.210072l-7.894964 16h16.38413c-.095664 0-.173828-.075037-.173828-.166707v-10.333124c0-.091669.078164-.166707.173828-.166707h6.23174c.095664 0 .173828.075038.173828.166707v10.333124c0 .09167-.078164.166707-.173828.166707h16.38413z" stroke="#000" transform="matrix(-1 0 0 1 321 0)"/><path d="m170.827793 26h-20.655586c-.094592 0-.172207-.0638404-.172207-.1416459v-1.7167082c0-.0778055.077615-.1416459.172207-.1416459h20.655586c.094592 0 .172207.0638404.172207.1416459v1.7167082c0 .0778055-.077615.1416459-.172207.1416459" stroke="#000" transform="matrix(-1 0 0 1 321 0)"/><path d="m165.528257 23.699963v-.3000371h-10.056514v.0789991h.07152c-.001083-.0454843-.030341-.0778021-.07152-.0789991v.0789991h.07152v-12.95785h-.07152v.0789991c.041179-.001197.070437-.0335148.07152-.0789991h-.07152v.0789991h10.056514v-.0789991h-.07152c.001083.0454843.030341.0778021.07152.0789991v-.0789991h-.07152v12.95785h.07152v-.0789991c-.041179.001197-.070437.0339138-.07152.0789991h.07152v-.0789991.6000741c.261517-.001197.470659-.2326085.471743-.521075v-12.95785c-.001084-.2884665-.210587-.519878-.471743-.521075h-10.056514c-.261156.001197-.470659.2322095-.471743.521075v12.95785c.001084.2888655.210226.519878.471743.521075h10.056514z" stroke="#000" transform="matrix(-1 0 0 1 321 0)"/><path d="m154 11c0-2.76147576 2.91002-5 6.499816-5 3.589797 0 6.500184 2.23852424 6.500184 5z" stroke="#000" transform="matrix(-1 0 0 1 321 0)"/><path d="m161.873806 7h-2.747907c-.069156 0-.125899-.07659574-.125899-.17034574v-2.65930852c0-.09375.056743-.17034574.125899-.17034574h2.747907c.069451 0 .126194.07659574.126194.17034574v2.65930852c0 .09375-.056743.17034574-.126194.17034574" stroke="#000" transform="matrix(-1 0 0 1 321 0)"/><path d="m160.901457 4h-.802914c-.054129 0-.098543-.08063839-.098543-.17891642v-2.64216716c0-.09827803.044414-.17891642.098543-.17891642h.802914c.054129 0 .098543.08063839.098543.17891642v2.64216716c0 .09827803-.044414.17891642-.098543.17891642" stroke="#000" transform="matrix(-1 0 0 1 321 0)"/><path d="m168.457103 23.6041955v-.3958044h-15.914206v.2267959h.21853c-.001523-.127449-.09594-.2252127-.21853-.2267959v.2267959h.21853v-4.870374h-.21853v.2267959c.12259-.0015832.217007-.0993469.21853-.2267959h-.21853v.2267959h15.914206v-.2267959h-.21853c.001523.127449.09594.2252127.21853.2267959v-.2267959h-.21853v4.870374h.21853v-.2267959c-.12259.0015832-.217007.0993469-.21853.2267959h.21853v-.2267959.7916089c.301144-.0015832.541755-.2513358.542897-.564813v-4.870374c-.001142-.3134772-.241753-.5632298-.542897-.564813h-15.914206c-.301144.0015832-.541755.2513358-.542897.564813v4.870374c.001142.3134772.241753.5632298.542897.564813h15.914206z" stroke="#000" transform="matrix(-1 0 0 1 321 0)"/><path d="m165 24h1v-5h-1z" stroke="#000" transform="matrix(-1 0 0 1 331 0)"/><path d="m161 24h1v-5h-1z" stroke="#000" transform="matrix(-1 0 0 1 323 0)"/><path d="m156 24h1v-5h-1z" stroke="#000" transform="matrix(-1 0 0 1 313 0)"/></g><path d="m182 0 3 29h-6z" fill="url(#a)" transform="matrix(0 -1 1 0 167.5 196.5)"/><path d="m139 0 3 29h-6z" fill="url(#a)" transform="matrix(0 -1 -1 0 153.5 153.5)"/></g></svg>